HIERARCHY
ROOT Hips
{
	OFFSET 0.00000 0.00000 0.00000
	CHANNELS 6 Xposition Yposition Zposition Zrotation Yrotation Xrotation 
	JOINT LHipJoint
	{
		OFFSET 0 0 0
		CHANNELS 3 Zrotation Yrotation Xrotation
		JOINT LeftUpLeg
		{
			OFFSET 1.60223 -1.58443 0.78595
			CHANNELS 3 Zrotation Yrotation Xrotation
			JOINT LeftLeg
			{
				OFFSET 2.21690 -6.09089 0.00000
				CHANNELS 3 Zrotation Yrotation Xrotation
				JOINT LeftFoot
				{
					OFFSET 2.34805 -6.45122 0.00000
					CHANNELS 3 Zrotation Yrotation Xrotation
					JOINT LeftToeBase
					{
						OFFSET 0.35452 -0.97402 1.38549
						CHANNELS 3 Zrotation Yrotation Xrotation
						End Site
						{
							OFFSET 0.00000 -0.00000 0.82816
						}
					}
				}
			}
		}
	}
	JOINT RHipJoint
	{
		OFFSET 0 0 0
		CHANNELS 3 Zrotation Yrotation Xrotation
		JOINT RightUpLeg
		{
			OFFSET -1.56524 -1.58443 0.78595
			CHANNELS 3 Zrotation Yrotation Xrotation
			JOINT RightLeg
			{
				OFFSET -2.15558 -5.92241 0.00000
				CHANNELS 3 Zrotation Yrotation Xrotation
				JOINT RightFoot
				{
					OFFSET -2.35077 -6.45870 0.00000
					CHANNELS 3 Zrotation Yrotation Xrotation
					JOINT RightToeBase
					{
						OFFSET -0.26910 -0.73935 1.33295
						CHANNELS 3 Zrotation Yrotation Xrotation
						End Site
						{
							OFFSET -0.00000 -0.00000 0.75962
						}
					}
				}
			}
		}
	}
	JOINT LowerBack
	{
		OFFSET 0 0 0
		CHANNELS 3 Zrotation Yrotation Xrotation
		JOINT Spine
		{
			OFFSET -0.05489 1.97104 -0.02993
			CHANNELS 3 Zrotation Yrotation Xrotation
			JOINT Spine1
			{
				OFFSET -0.00702 1.94230 0.13626
				CHANNELS 3 Zrotation Yrotation Xrotation
				JOINT Neck
				{
					OFFSET 0 0 0
					CHANNELS 3 Zrotation Yrotation Xrotation
					JOINT Neck1
					{
						OFFSET -0.07858 1.62869 -0.02510
						CHANNELS 3 Zrotation Yrotation Xrotation
						JOINT Head
						{
							OFFSET 0.13978 1.59213 -0.29859
							CHANNELS 3 Zrotation Yrotation Xrotation
							End Site
							{
								OFFSET 0.05353 1.64420 -0.10000
							}
						}
					}
				}
				JOINT LeftShoulder
				{
					OFFSET 0 0 0
					CHANNELS 3 Zrotation Yrotation Xrotation
					JOINT LeftArm
					{
						OFFSET 3.48263 1.15278 0.52941
						CHANNELS 3 Zrotation Yrotation Xrotation
						JOINT LeftForeArm
						{
							OFFSET 4.59207 -0.00000 -0.00000
							CHANNELS 3 Zrotation Yrotation Xrotation
							JOINT LeftHand
							{
								OFFSET 2.98109 -0.00000 -0.00000
								CHANNELS 3 Zrotation Yrotation Xrotation
								JOINT LeftFingerBase
								{
									OFFSET 0 0 0
									CHANNELS 3 Zrotation Yrotation Xrotation
									JOINT LeftHandIndex1
									{
										OFFSET 0.48020 -0.00000 -0.00000
										CHANNELS 3 Zrotation Yrotation Xrotation
										End Site
										{
											OFFSET 0.38715 -0.00000 -0.00000
										}
									}
								}
								JOINT LThumb
								{
									OFFSET 0 0 0
									CHANNELS 3 Zrotation Yrotation Xrotation
									End Site
									{
										OFFSET 0.39306 -0.00000 0.39306
									}
								}
							}
						}
					}
				}
				JOINT RightShoulder
				{
					OFFSET 0 0 0
					CHANNELS 3 Zrotation Yrotation Xrotation
					JOINT RightArm
					{
						OFFSET -3.52496 1.12722 0.24548
						CHANNELS 3 Zrotation Yrotation Xrotation
						JOINT RightForeArm
						{
							OFFSET -4.76508 -0.00000 -0.00000
							CHANNELS 3 Zrotation Yrotation Xrotation
							JOINT RightHand
							{
								OFFSET -2.78902 -0.00000 -0.00000
								CHANNELS 3 Zrotation Yrotation Xrotation
								JOINT RightFingerBase
								{
									OFFSET 0 0 0
									CHANNELS 3 Zrotation Yrotation Xrotation
									JOINT RightHandIndex1
									{
										OFFSET -0.72130 -0.00000 -0.00000
										CHANNELS 3 Zrotation Yrotation Xrotation
										End Site
										{
											OFFSET -0.58153 -0.00000 -0.00000
										}
									}
								}
								JOINT RThumb
								{
									OFFSET 0 0 0
									CHANNELS 3 Zrotation Yrotation Xrotation
									End Site
									{
										OFFSET -0.59041 -0.00000 0.59041
									}
								}
							}
						}
					}
				}
			}
		}
	}
}
MOTION
Frames: 16
Frame Time: 0.00527704
0.00 0.00 0.00 0 0 0 0 0 0 -21 0 0 0 0 0 0 0 0 0 0 0 0 0 0 21 0 0 0 0 0 0 0 0 0 0 0 0 0 0 0 0 0 0 0 0 0 0 -16 0 0 21 0 0 11 0 0 0 -8 0 0 0 0 0 0 0 0 0 0 0 0 0 0 0 0 0 0 0 0 8 0 0 0 0 0 0 0 0 0 0 0 0 0 0 0 0 0
0.00 0.00 0.00 89.3839 -87.4202 -92.0435 0.0000 0.0000 0.0000 -27.2984 -3.3823 -8.2405 4.0179 12.1842 36.3866 2.3974 -8.9597 -27.8545 0.3607 -3.8581 -10.6778 0.0000 0.0000 0.0000 15.0344 5.5511 -15.3970 -5.7394 -14.1710 43.9268 -1.6208 0.9579 -23.7983 -1.5832 7.9379 -22.5255 -4.3516 3.3263 6.1212 0.3456 4.1108 -1.2497 2.3568 2.1668 -5.0671 -12.2264 -5.6470 -3.2154 12.0849 -7.7674 5.8267 5.3450 -3.7844 3.2046 0.0000 0.0000 0.0000 -100.7488 10.8429 14.0925 30.3816 -41.2183 -11.6603 -0.0000 -0.0000 8.3054 37.5957 42.4122 27.4439 -7.1250 0.0000 -0.0000 0.7417 79.0424 0.5872 0.0000 0.0000 0.0000 98.4321 -3.0201 9.6879 -19.3978 29.9099 -5.2277 0.0000 -0.0000 -0.3104 5.3897 56.1926 4.4824 7.1250 -0.0000 -0.0000 21.5109 23.2384 29.8076
0.00 0.00 0.00 84.7849 -86.5652 -83.9465 0.0000 0.0000 0.0000 -28.3742 -1.7520 -3.2250 2.0787 9.0280 25.8831 1.9870 -8.7198 -25.2934 0.1735 -2.6836 -7.3990 0.0000 0.0000 0.0000 14.7668 7.0660 -27.4172 -3.6306 -11.6519 34.5114 -1.2692 -2.5628 -22.3432 -1.9783 8.8207 -25.2360 -5.9826 1.2617 4.7799 -1.0930 1.1346 -3.3661 2.0963 0.7761 -6.3096 -10.9894 -4.5189 -3.7008 13.1744 -6.5362 7.3409 5.5487 -3.1052 3.5725 -0.0000 -0.0000 0.0000 -96.3758 13.5390 43.4348 67.9032 -58.0722 -40.9875 -0.0000 -0.0000 4.3020 37.1261 37.1365 24.5613 -7.1250 0.0000 -0.0000 5.2720 73.4482 3.5542 -0.0000 -0.0000 0.0000 95.9347 -11.4312 -23.2601 -13.3096 21.7391 -2.5668 0.0000 0.0000 11.3640 0.9320 56.6065 0.7782 7.1250 -0.0000 -0.0000 19.8911 23.9746 27.4557
0.00 0.00 0.00 211.7700 -83.3050 -211.6450 0.0000 0.0000 0.0000 -20.6567 -4.0043 -7.0357 7.2080 15.5046 49.6568 1.4772 2.7520 -24.0932 1.6679 -8.1370 -23.1310 0.0000 0.0000 0.0000 26.6261 4.5452 -17.6500 -3.0312 -10.7453 31.4258 -1.6686 4.6957 -23.3628 -0.4509 4.3081 -11.9450 -2.1449 -0.6543 3.9592 0.0791 -1.1038 -5.0017 1.4026 -0.4518 -7.4104 -8.6207 -1.1526 -4.0446 14.7691 -2.7102 10.6003 5.8939 -1.0739 4.0929 -0.0000 -0.0000 0.0000 -97.5108 16.0045 32.9585 42.1486 -49.2926 -20.0531 -0.0000 -0.0000 22.1897 41.6576 30.2283 24.1270 -7.1250 0.0000 -0.0000 15.1714 67.3518 8.2361 -0.0000 -0.0000 0.0000 98.3514 -11.9001 -14.3080 -16.8705 26.6867 -4.0290 0.0000 -0.0000 -0.7593 -0.9240 55.2853 -0.7596 7.1250 -0.0000 -0.0000 18.9944 22.9101 25.9481
0.00 0.00 0.00 216.8440 -80.4946 -216.7530 0.0000 0.0000 0.0000 -14.9475 0.7925 -22.4388 13.4111 18.9256 70.3975 0.1252 5.6212 -10.9819 0.2031 -2.9022 -8.0065 0.0000 0.0000 0.0000 29.8641 2.6382 -15.0538 -2.6713 -10.1429 29.4408 -1.6035 7.9805 -22.6719 -0.1792 2.7270 -7.5195 -0.6223 -0.7446 4.4918 0.8005 -1.0676 -5.1214 1.3138 -0.4922 -7.8608 -7.1423 -0.3608 -4.4818 13.3546 -1.6597 11.5274 5.2488 -0.5307 4.3022 -0.0000 0.0000 0.0000 -98.3966 16.1844 17.0682 26.9356 -38.1178 -9.4594 -0.0000 -0.0000 31.0153 38.9166 32.7490 23.5937 -7.1250 0.0000 -0.0000 10.3378 69.3045 6.0404 -0.0000 0.0000 0.0000 99.6013 -9.4135 -3.3142 -20.1304 30.7992 -5.5980 0.0000 -0.0000 -5.6321 0.0043 53.9438 0.0035 7.1250 -0.0000 -0.0000 19.1721 21.5500 25.9881
0.00 0.00 0.00 208.5780 -79.5182 -206.1980 0.0000 0.0000 0.0000 -8.6495 -5.9232 -35.9704 7.4650 15.7113 50.6118 1.0689 5.2646 -22.1011 1.5531 -7.8656 -22.3066 0.0000 0.0000 0.0000 29.2446 1.1787 -7.7722 -1.4486 -7.6081 21.5300 -1.5836 8.7517 -22.5410 -0.1549 2.5364 -6.9905 -3.3096 0.0654 4.1528 2.3581 -0.1312 -6.0584 4.3872 0.1937 -8.7247 -5.4881 0.2546 -5.3448 9.0437 -0.3164 11.3582 3.6732 0.0413 4.2709 0.0000 -0.0000 0.0000 -95.9852 29.0893 -3.9180 21.1099 -31.9564 -6.1080 -0.0000 -0.0000 35.3554 37.9853 37.0985 25.2210 -7.1250 0.0000 -0.0000 6.9096 73.6988 4.6981 0.0000 -0.0000 0.0000 97.4983 -5.5055 23.3066 -43.0338 49.7681 -20.7265 0.0000 -0.0000 -16.8851 -0.7006 51.8345 -0.5508 7.1250 -0.0000 -0.0000 18.6239 19.6269 24.8436
0.00 0.00 0.00 37.9120 -81.3710 -38.8277 0.0000 0.0000 0.0000 -30.1378 -2.2294 -9.4914 2.9754 10.6551 31.1254 1.2503 -12.0201 -20.4638 0.1651 -2.6176 -7.2157 0.0000 0.0000 0.0000 13.4803 2.4763 -20.1632 -4.3685 -12.6352 38.0178 -1.2574 -9.7651 -26.7700 -0.0871 1.9038 -5.2398 -4.9779 -1.1734 3.7174 -3.2178 -2.4954 -7.2594 -0.3305 -1.0779 -9.7537 -11.4860 -3.8366 -0.4089 14.0522 -6.7033 12.4901 6.0020 -3.3290 4.5967 -0.0000 0.0000 0.0000 -85.9313 -12.9530 24.4803 83.0967 -59.8192 -54.0252 -0.0000 -0.0000 17.1607 35.9599 37.6873 23.9182 -7.1250 0.0000 -0.0000 2.7286 73.6286 1.8493 -0.0000 0.0000 0.0000 95.7267 -9.8088 11.1603 -94.8228 59.9119 -64.1755 0.0000 -0.0000 -3.5345 -22.1792 66.6108 -20.5144 7.1250 -0.0000 -0.0000 15.1988 36.6151 21.6342
0.00 0.00 0.00 49.4777 -84.8336 -49.7396 0.0000 0.0000 0.0000 -28.7129 -2.7657 -8.2565 2.9716 10.6489 31.1046 1.6861 -8.8257 -23.2669 0.8174 -5.7690 -16.1156 0.0000 0.0000 0.0000 15.2713 4.4672 -17.4327 -3.6447 -11.6720 34.5812 -1.3849 -8.3894 -26.6891 -0.1779 2.7172 -7.4923 -3.8336 -1.7996 1.9368 -2.6661 -3.1568 -7.9044 -0.3562 -1.4837 -9.4033 -10.8460 -2.6694 -1.0968 14.1346 -5.2848 13.9839 6.0090 -2.5833 4.9531 0.0000 -0.0000 0.0000 -84.8879 -11.6890 22.3131 84.0876 -59.8675 -54.8820 -0.0000 -0.0000 15.3880 33.4834 37.0814 21.7437 -7.1250 0.0000 -0.0000 -1.0093 72.1593 -0.6516 0.0000 -0.0000 0.0000 94.2835 -6.1889 15.7222 -113.0505 57.8940 -79.8211 0.0000 -0.0000 -2.3675 -12.3339 63.9495 -11.1137 7.1250 -0.0000 -0.0000 17.0128 32.4964 24.0878
0.00 0.00 0.00 181.9410 -72.9003 -182.7460 0.0000 0.0000 0.0000 -25.5168 -2.5300 -8.0500 4.0293 12.1993 36.4407 2.5206 5.3271 -32.2361 0.7860 -5.6597 -15.8002 0.0000 0.0000 0.0000 21.1468 5.3354 -15.8716 -3.0650 -10.7996 31.6070 -0.9258 7.1681 -17.1885 -0.3319 3.7027 -10.2417 -3.1302 0.9931 3.0186 1.6264 1.0358 -7.0780 3.3819 0.7230 -9.2715 -8.2615 0.3641 -5.1708 11.6423 -0.6203 14.8726 5.0141 -0.1215 5.3236 -0.0000 0.0000 0.0000 -62.0678 -15.3331 11.3671 86.6971 -59.9587 -57.1400 -0.0000 -0.0000 7.4712 24.9071 36.8722 15.5687 -7.1250 0.0000 -0.0000 -13.2800 69.1474 -7.7321 -0.0000 0.0000 0.0000 88.7866 9.6080 63.8488 -123.0827 55.4309 -88.2109 0.0000 0.0000 7.3117 -2.5084 46.7107 -1.8264 7.1250 -0.0000 -0.0000 17.2791 14.9634 22.0227
0.00 0.00 0.00 179.8470 -65.3354 -183.1160 0.0000 0.0000 0.0000 -28.0026 -1.7037 -6.4576 3.9126 12.0432 35.8849 2.6510 11.0060 -36.1630 0.1846 -2.7675 -7.6321 0.0000 0.0000 0.0000 19.9131 4.6280 -18.7192 -4.0567 -12.2355 36.5703 -0.5750 13.3140 -15.3472 -0.5930 4.9302 -13.7096 -5.5715 3.9085 7.7881 3.7597 4.8488 -5.1017 6.3830 2.8807 -10.7274 -8.2221 -0.6855 -5.1600 7.3969 -1.1272 11.4832 3.5739 -0.5549 4.3511 -0.0000 -0.0000 0.0000 -59.8991 -21.5404 10.4119 88.4753 -59.9912 -58.6796 -0.0000 0.0000 -7.4261 24.5130 39.2863 16.1054 -7.1250 0.0000 -0.0000 -16.8800 71.3020 -10.6715 -0.0000 -0.0000 0.0000 80.3580 -6.4862 72.8834 -107.7622 58.7737 -75.3192 0.0000 0.0000 10.6864 -13.9807 55.3903 -11.5803 7.1250 -0.0000 -0.0000 13.9535 24.9043 18.9254
0.00 0.00 0.00 176.0390 -65.5379 -179.9460 0.0000 0.0000 0.0000 -29.6804 -0.8165 -7.9768 4.0167 12.1826 36.3809 2.5108 10.2827 -34.9575 0.0812 -1.8383 -5.0589 0.0000 0.0000 0.0000 17.6311 5.4397 -21.7664 -5.1070 -13.5032 41.2827 -1.1963 10.0718 -19.7431 -2.3720 9.6015 -27.6955 -5.3814 3.9779 9.9585 2.8346 4.8220 -4.5768 5.1575 2.8162 -11.3085 -8.4020 -0.8917 -4.7980 7.3352 -1.2795 9.4289 3.5596 -0.6190 3.6843 -0.0000 -0.0000 0.0000 -60.6118 -23.8610 10.3114 88.7565 -59.9942 -58.9232 -0.0000 0.0000 -14.5160 19.8892 39.2925 12.9043 -7.1250 0.0000 -0.0000 -22.7845 69.7850 -13.7524 -0.0000 -0.0000 0.0000 78.1533 -14.3324 68.9494 -90.3108 59.9996 -60.2692 0.0000 0.0000 9.4943 -11.9299 57.7572 -10.1317 7.1250 -0.0000 -0.0000 15.3361 26.7409 21.1026
0.00 0.00 0.00 163.2120 -69.6565 -169.2020 0.0000 0.0000 0.0000 -33.4621 1.9905 -9.1834 3.9414 12.0820 36.0227 2.2561 5.6423 -30.8206 0.0978 -2.0171 -5.5530 0.0000 0.0000 0.0000 11.8209 7.6974 -24.8231 -7.9205 -16.0604 52.2757 -1.6419 0.1464 -24.2057 -2.0239 8.9156 -25.5318 -4.5549 1.9372 14.1354 -0.7707 1.6385 -3.5884 1.3317 1.0623 -12.0413 -9.3521 -0.8704 -4.9108 10.7453 -1.3319 7.0956 4.7608 -0.5259 3.0289 -0.0000 -0.0000 0.0000 -60.5815 -26.2166 8.0978 90.4492 -59.9992 -60.3890 -0.0000 0.0000 -25.3970 8.3856 42.6417 5.7025 -7.1250 0.0000 -0.0000 -41.1325 68.7763 -24.9570 -0.0000 -0.0000 0.0000 76.8068 -18.8646 53.0030 -60.2476 56.3756 -34.5472 0.0000 0.0000 15.7554 -3.3416 69.3642 -3.1276 7.1250 -0.0000 -0.0000 21.3027 36.2942 30.8296
0.00 0.00 0.00 110.7400 -79.7086 -111.2280 0.0000 0.0000 0.0000 -34.8813 -0.3203 -14.7491 3.6899 11.7359 34.8041 1.9713 -7.6535 -25.2128 0.6936 -5.3240 -14.8351 0.0000 0.0000 0.0000 8.6630 6.1001 -13.6460 -9.8456 -17.3221 58.9711 -0.5095 -4.2691 -15.7238 -0.6106 5.0015 -13.9127 1.5590 -5.0767 7.3908 -7.3556 -7.5370 -3.8700 -7.5841 -4.1844 -9.5577 -8.8610 -0.2969 -5.3764 15.1883 -0.8432 5.4394 6.0845 -0.1664 2.5810 0.0000 -0.0000 0.0000 -58.5444 -21.1944 1.1918 108.4098 -58.6798 -75.8726 -0.0000 0.0000 -38.1111 -11.0578 43.5696 -7.6713 -7.1250 0.0000 -0.0000 -60.3172 63.5222 -32.6677 0.0000 -0.0000 0.0000 66.4097 -28.4772 28.5619 -71.6804 58.6931 -44.2044 0.0000 0.0000 13.6626 -134.3623 -82.5614 134.6044 7.1250 -0.0000 -0.0000 30.6048 60.9034 42.1377
0.00 0.00 0.00 133.2370 -82.4136 -130.9090 0.0000 0.0000 0.0000 -28.4772 -3.8401 -20.3079 4.8727 13.2390 40.2700 2.0864 -6.1469 -26.0724 1.2409 -7.0634 -19.9034 0.0000 0.0000 0.0000 15.7666 4.5027 -5.2512 -4.6269 -12.9509 39.1848 -1.5416 -4.9770 -25.7023 -1.8315 8.5060 -24.2618 3.2068 -3.8748 6.9913 -5.4168 -5.5063 -4.8431 -6.7649 -3.2008 -10.0009 -8.7784 -0.9602 -4.2534 14.4558 -1.5484 3.5113 5.7952 -0.6057 1.9132 -0.0000 0.0000 0.0000 -59.3323 -19.0120 2.3390 112.6336 -57.9730 -79.4679 -0.0000 0.0000 -38.4956 -13.6692 43.1610 -9.4455 -7.1250 0.0000 -0.0000 -61.8166 62.5627 -32.4906 -0.0000 0.0000 0.0000 68.9714 -27.1484 23.1491 -65.5823 57.6227 -39.0224 0.0000 0.0000 15.6512 -125.5531 -83.0147 125.7553 7.1250 -0.0000 -0.0000 29.1860 60.0458 40.3639
0.00 0.00 0.00 268.3910 -81.7640 -264.8800 0.0000 0.0000 0.0000 -12.4321 -11.9156 -28.4015 8.8185 16.6895 55.4605 1.9157 -12.9079 -25.1138 1.2164 -6.9959 -19.7034 0.0000 0.0000 0.0000 32.0488 -6.3984 -7.1022 -3.1141 -10.8775 31.8679 -1.5904 0.7201 -23.6400 -1.7132 8.2412 -23.4490 2.2955 1.6198 6.6042 5.4533 2.6734 -4.3241 4.1437 1.2941 -8.4607 -8.8821 -4.5752 2.0805 7.4234 -6.2713 -0.8573 4.0255 -3.1689 -0.0803 -0.0000 0.0000 0.0000 -67.2160 -27.2819 20.4148 105.5929 -59.0611 -73.4612 -0.0000 0.0000 -32.8870 -14.4179 40.9655 -9.5672 -7.1250 0.0000 -0.0000 -59.1674 61.1117 -28.5939 -0.0000 0.0000 0.0000 90.1352 3.2859 22.5494 -44.1468 50.3436 -21.5798 0.0000 0.0000 9.1137 -11.5467 66.8856 -10.6418 7.1250 -0.0000 -0.0000 18.2537 35.0313 26.1088
0.00 0.00 0.00 305.6080 -87.0140 -304.4430 0.0000 0.0000 0.0000 -21.4506 -11.8178 -19.8736 6.2606 14.6762 46.0190 1.8944 -10.3616 -24.7332 0.4224 -4.1714 -11.5594 0.0000 0.0000 0.0000 23.7860 -6.7563 -16.7608 -7.4274 -15.6815 50.4727 -0.3878 -2.5943 -13.0030 -1.3307 7.3050 -20.6221 0.6301 1.6245 9.6934 2.4151 2.4574 -4.2270 1.7897 1.2212 -10.0688 -9.4940 -4.8543 2.7850 9.6739 -6.8114 0.5176 4.4317 -3.4789 0.3606 -0.0000 0.0000 0.0000 -67.7945 -28.0103 22.6946 104.4780 -59.1930 -72.5043 -0.0000 0.0000 -31.9566 -17.1309 40.7804 -11.3828 -7.1250 0.0000 -0.0000 -61.1567 60.3014 -28.8280 -0.0000 0.0000 0.0000 95.0760 11.9046 19.7894 -37.4215 46.4658 -16.5449 0.0000 0.0000 4.8693 -8.4364 60.9315 -7.3863 7.1250 -0.0000 -0.0000 17.3933 29.1360 24.3651
